<svg width="40" height="40" viewBox="0 0 40 40" fill="none" xmlns="http://www.w3.org/2000/svg">
<path d="M0 2C0 0.895431 0.895431 0 2 0H38C39.1046 0 40 0.895431 40 2V40H0V2Z" fill="#224256"/>
<path d="M25.6163 17.5H9.58301C8.89265 17.5 8.33301 16.9404 8.33301 16.25C8.33301 15.5596 8.89265 15 9.58301 15H25.6163C26.3067 15 26.8663 15.5596 26.8663 16.25C26.8663 16.9404 26.3067 17.5 25.6163 17.5Z" fill="#F5FFFF"/>
<path d="M9.58301 23.3333H30.9497C31.64 23.3333 32.1997 23.893 32.1997 24.5833C32.1997 25.2737 31.64 25.8333 30.9497 25.8333H9.58301C8.89265 25.8333 8.33301 25.2737 8.33301 24.5833C8.33301 23.893 8.89265 23.3333 9.58301 23.3333Z" fill="#F5FFFF"/>
</svg>
