<?xml version="1.0" standalone="no"?>
<!DOCTYPE svg PUBLIC "-//W3C//DTD SVG 20010904//EN" "http://www.w3.org/TR/2001/REC-SVG-20010904/DTD/svg10.dtd">
<svg xmlns="http://www.w3.org/2000/svg" version="1.0" width="820.000000pt" height="512.000000pt" viewBox="0 0 820.000000 512.000000" preserveAspectRatio="xMidYMid meet">
<metadata>
Created by potrace 1.16, written by Peter Selinger 2001-2019
<meta name="Producer" content="Online-Convert"/></metadata>
<g transform="translate(0.000000,512.000000) scale(0.100000,-0.100000)" fill="#000000" stroke="none">
<path d="M3855 5109 c-225 -23 -487 -86 -690 -166 -211 -83 -472 -234 -659 -380 -107 -84 -361 -345 -444 -456 -271 -361 -441 -776 -503 -1227 -17 -123 -18 -516 -1 -635 43 -301 120 -553 247 -810 130 -265 258 -445 465 -659 860 -887 2225 -1030 3255 -340 220 147 458 373 618 586 469 625 628 1410 437 2168 -43 171 -93 307 -174 475 -127 263 -266 462 -470 672 -219 226 -428 378 -711 518 -247 123 -482 197 -765 240 -125 19 -477 28 -605 14z m240 -283 c212 -99 422 -524 540 -1093 l7 -33 -641 0 c-524 0 -641 2 -641 13 0 26 89 364 120 457 40 119 107 276 155 360 150 266 308 368 460 296z m540 -35 c574 -141 1059 -483 1388 -981 l69 -105 -583 -3 c-321 -1 -589 0 -595 2 -6 2 -15 26 -19 53 -12 84 -83 355 -128 489 -74 220 -149 382 -239 517 -23 34 -34 57 -26 57 8 0 67 -13 133 -29z m-1195 -73 c-131 -222 -232 -495 -310 -841 -21 -92 -40 -170 -42 -173 -3 -2 -224 -3 -492 -2 l-487 3 79 120 c81 122 230 302 318 386 252 238 541 413 864 525 52 18 96 33 98 33 2 1 -10 -23 -28 -51z m-394 -1310 c-16 -91 -55 -574 -56 -700 0 -17 -35 -18 -591 -18 l-591 0 7 78 c11 122 42 290 75 411 28 99 73 231 86 253 3 4 246 8 541 8 l535 0 -6 -32z m1646 -23 c17 -118 39 -376 45 -529 l6 -166 -743 0 -743 0 7 183 c6 160 21 344 42 515 l7 52 686 -2 686 -3 7 -50z m1555 -10 c60 -150 122 -424 138 -607 l7 -78 -690 0 -690 0 -6 63 c-3 34 -8 118 -11 187 -6 117 -27 360 -41 458 l-6 42 638 -2 638 -3 23 -60z m-3253 -1052 c7 -114 34 -462 43 -550 l6 -53 -541 0 -540 0 -36 108 c-58 175 -93 343 -112 535 l-6 67 590 0 590 0 6 -107z m1743 -55 c-6 -157 -31 -448 -43 -515 l-6 -33 -688 0 -688 0 -6 28 c-14 65 -37 337 -43 502 l-6 180 743 0 743 0 -6 -162z m1649 95 c-19 -192 -54 -360 -112 -535 l-36 -108 -642 0 -643 0 8 58 c14 99 39 419 39 491 0 38 3 89 6 115 l7 46 690 0 689 0 -6 -67z m-3282 -1000 c74 -379 190 -712 336 -960 l30 -52 -118 40 c-508 174 -956 541 -1233 1012 l-28 47 498 0 498 0 17 -87z m1526 5 c-105 -478 -250 -819 -420 -990 -137 -137 -272 -141 -409 -13 -166 156 -333 536 -424 968 l-25 117 648 0 648 0 -18 -82z m1449 30 c-269 -459 -719 -829 -1219 -1003 -98 -34 -328 -95 -358 -95 -7 0 4 25 29 61 141 208 273 568 360 982 l22 107 598 0 598 0 -30 -52z"/>
</g>
</svg>
